<svg xmlns="http://www.w3.org/2000/svg" width="265.209" height="37.919" viewBox="0 0 265.209 37.919">
    <g transform="translate(-540 -496)">
        <g transform="translate(766 533.919) rotate(-90)" opacity="0.75">
            <g transform="translate(0 0)">
                <path d="M1.336,7.934l2.491-.791A2.783,2.783,0,0,0,5.466,5.138,9.079,9.079,0,0,0,4.692,0C4.219.162,1.676,1.1.677,2.734l.015.008-.072.087A2.906,2.906,0,0,0,.176,5.644Z"
                      transform="translate(31.782 0)" fill="#112c56"/>
                <path d="M1.742,7.147l2.482.787,1.16-2.29A2.906,2.906,0,0,0,4.94,2.828l-.072-.086.015-.008C3.884,1.1,1.341.162.868,0A9.084,9.084,0,0,0,.094,5.136,2.787,2.787,0,0,0,1.742,7.147Z"
                      transform="translate(0.687 0)" fill="#112c56"/>
                <path d="M4.311,13.407,7.4,10.757A4.34,4.34,0,0,0,8.532,6.878,14.1,14.1,0,0,0,4.29,0C3.808.43.6,3.392.186,6.412l.017,0-.031.1a4.526,4.526,0,0,0,1.079,4.31Z"
                      transform="translate(14.737 5.489)" fill="#112c56"/>
                <path d="M1.665,7.468l.054.1A4.531,4.531,0,0,0,5.536,9.851a10.108,10.108,0,0,1,9.052,8.219c.04.269.061.546.08.814.013.177.026.354.044.529a4.835,4.835,0,0,0,.068.527,3.874,3.874,0,0,0,1.088,2.027,4.176,4.176,0,0,0,2.5,1.254,4.554,4.554,0,0,0,1,.048,3.938,3.938,0,0,0,.9-.169c.037-.01.071-.022.105-.033l.074-.025.082-.029a4.032,4.032,0,0,0,1.739-1.261c.033-.04.064-.079.095-.119s.057-.075.084-.114a4.444,4.444,0,0,0,.838-2.351,9.99,9.99,0,0,1,.268-2.046c.912-3.413,4.724-7.158,8.943-7.293a4.342,4.342,0,0,0,3.553-1.942A14.056,14.056,0,0,0,37.914.022c-.645-.037-5.007-.212-7.435,1.631l.012.013-.1.054a4.528,4.528,0,0,0-2.285,3.817,10.109,10.109,0,0,1-8.22,9.051c-.27.041-.552.061-.8.079a9.619,9.619,0,0,1-1.969-.262c-3.412-.913-7.158-4.724-7.292-8.943A4.342,4.342,0,0,0,7.885,1.909,13.817,13.817,0,0,0,.021.045C-.015.689-.19,5.052,1.653,7.479Z"
                      transform="translate(0 15.931)" fill="#112c56"/>
            </g>
        </g>
        <line x1="80" transform="translate(675.5 514.5)" opacity="0.75" stroke="#112c56" stroke-linecap="round"
              stroke-width="1" fill="none"/>
        <line x1="50" transform="translate(610.5 514.5)" opacity="0.5" stroke="#112c56" stroke-linecap="round"
              stroke-width="1" fill="none"/>
        <line x1="30" transform="translate(565.5 514.5)" opacity="0.25" stroke="#112c56" stroke-linecap="round"
              stroke-width="1" fill="none"/>
        <line x1="10" transform="translate(540.5 514.5)" opacity="0.15" stroke="#112c56" stroke-linecap="round"
              stroke-width="1" fill="none"/>
    </g>
</svg>