<svg xmlns="http://www.w3.org/2000/svg" width="23.126" height="53.1" viewBox="0 0 23.126 53.1">
    <g transform="translate(-2324.288 331.693)">
        <path d="M2347.365-261.237c0,3.159.126,6.323-.027,9.474a11.424,11.424,0,0,1-11.4,10.737,11.331,11.331,0,0,1-11.512-10.7c-.2-6.4-.177-12.825.018-19.23.166-5.447,4.99-10.023,10.522-10.4a11.461,11.461,0,0,1,12.152,8.974,15.866,15.866,0,0,1,.271,2.979c.036,2.721.012,5.442.012,8.163Zm-1.893.017c0-2.814.025-5.629-.015-8.443a11.034,11.034,0,0,0-.323-2.684,9.549,9.549,0,0,0-10.454-7.064,9.547,9.547,0,0,0-8.388,9.425c-.049,5.879-.014,11.758-.01,17.638a7.338,7.338,0,0,0,.083,1.215,9.614,9.614,0,0,0,10.564,8.125,9.592,9.592,0,0,0,8.54-9.673C2345.487-255.528,2345.474-258.374,2345.473-261.22Z"
              transform="translate(0 -50.311)" fill="#fff"/>
        <path d="M2355.7-34.437c1.733-1.741,3.3-3.314,4.863-4.884.2-.2.385-.506.619-.551.381-.074.976-.122,1.151.091a1.269,1.269,0,0,1,.121,1.206q-2.973,3.125-6.1,6.1a1.344,1.344,0,0,1-1.3-.084c-2.018-1.916-3.971-3.9-5.929-5.879a.909.909,0,0,1-.025-1.413c.51-.483,1.026-.317,1.483.141,1.392,1.394,2.789,2.784,4.174,4.185C2355.065-35.214,2355.331-34.867,2355.7-34.437Z"
              transform="translate(-19.89 -246.252)" fill="#fff"/>
        <path d="M2382.833-246.9c0,.731,0,1.462,0,2.193.006.867-.3,1.456-.975,1.446-.625-.009-.929-.559-.927-1.381,0-1.584,0-3.167,0-4.751,0-.829.35-1.343.968-1.327s.932.563.929,1.383S2382.833-247.713,2382.833-246.9Z"
              transform="translate(-46.008 -75.214)" fill="#fff"/>
    </g>
</svg>